<svg width="20" height="20" viewBox="0 0 20 20" fill="none" xmlns="http://www.w3.org/2000/svg">
<path fill-rule="evenodd" clip-rule="evenodd" d="M16.4994 8.48367C16.241 5.83367 14.6744 1.66699 9.83272 1.66699C4.99104 1.66699 3.42436 5.83367 3.16604 8.48367C2.25979 8.82762 1.66201 9.6977 1.66604 10.667V11.8337C1.66604 13.1223 2.71072 14.167 3.99936 14.167C5.28803 14.167 6.33272 13.1223 6.33272 11.8337V10.667C6.3285 9.71859 5.75272 8.86641 4.87436 8.50867C5.04104 6.97531 5.85772 3.33367 9.83272 3.33367C13.8077 3.33367 14.616 6.97531 14.7827 8.50867C13.9062 8.86719 13.3333 9.71996 13.3327 10.667V11.8337C13.3345 12.2727 13.4597 12.7024 13.694 13.0737C13.9283 13.4451 14.2622 13.743 14.6577 13.9337C14.3077 14.592 13.416 15.4837 11.2244 15.7503C10.7863 15.0851 9.93865 14.8228 9.20139 15.1244C8.46416 15.426 8.04334 16.2071 8.19709 16.9887C8.35084 17.7702 9.03615 18.3337 9.83272 18.3337C10.1414 18.3319 10.4435 18.2446 10.7054 18.0812C10.9673 17.9179 11.1787 17.6851 11.316 17.4087C14.891 17.0003 16.0327 15.1587 16.391 14.0753C17.3604 13.7613 18.0124 12.8526 17.9994 11.8337V10.667C18.0034 9.6977 17.4056 8.82762 16.4994 8.48367ZM4.66604 11.8337C4.66604 12.2018 4.36756 12.5003 3.99936 12.5003C3.63115 12.5003 3.33272 12.2019 3.33272 11.8337V10.667C3.33204 10.579 3.34879 10.4918 3.38199 10.4103C3.41519 10.3288 3.46419 10.2547 3.52616 10.1923C3.58813 10.1298 3.66185 10.0803 3.74307 10.0464C3.82429 10.0126 3.9114 9.99521 3.99938 9.99521C4.08735 9.99521 4.17446 10.0126 4.25568 10.0464C4.3369 10.0803 4.41062 10.1298 4.47259 10.1923C4.53456 10.2547 4.58356 10.3288 4.61676 10.4103C4.64996 10.4918 4.66671 10.579 4.66604 10.667V11.8337ZM14.9994 10.667C14.9994 10.2988 15.2978 10.0003 15.666 10.0003C16.0342 10.0003 16.3327 10.2988 16.3327 10.667V11.8337C16.3327 12.2018 16.0342 12.5003 15.666 12.5003C15.2978 12.5003 14.9994 12.2019 14.9994 11.8337V10.667Z" fill="#808080"/>
<path d="M14.9994 10.667C14.9994 10.2988 15.2978 10.0003 15.666 10.0003C16.0342 10.0003 16.3327 10.2988 16.3327 10.667V11.8337C16.3327 12.2018 16.0342 12.5003 15.666 12.5003C15.2978 12.5003 14.9994 12.2019 14.9994 11.8337V10.667Z" fill="#808080"/>
<path d="M4.66604 11.8337C4.66604 12.2018 4.36756 12.5003 3.99936 12.5003C3.63115 12.5003 3.33272 12.2019 3.33272 11.8337V10.667C3.33204 10.579 3.34879 10.4918 3.38199 10.4103C3.41519 10.3288 3.46419 10.2547 3.52616 10.1923C3.58813 10.1298 3.66185 10.0803 3.74307 10.0464C3.82429 10.0126 3.9114 9.99521 3.99938 9.99521C4.08735 9.99521 4.17446 10.0126 4.25568 10.0464C4.3369 10.0803 4.41062 10.1298 4.47259 10.1923C4.53456 10.2547 4.58356 10.3288 4.61676 10.4103C4.64996 10.4918 4.66671 10.579 4.66604 10.667V11.8337Z" fill="#808080"/>
</svg>
